User Type,Username,Date,Text
,patozoide,2012-12-16T05:56Z,Coletânia dos episódios disponiveis até 16/12/2012 acompanhado de legendas em Português do Brasil
,patozoide,2012-12-16T07:52Z,"Ao terminar o download, por favor, não fechem o programa usado para baixar (utorrent, bitcomet, bittorrent, azureus, official, etc...). Vc pode assistir o filme e manter o torrent sendo compartilhado ao mesmo tempo sem q uma tarefa interfira na outra. Mantenha o programa usado para baixar funcionando mesmo após o término do download. Vc estará ""semeando"" e  contribuindo com quem estiver baixando. Quanto mais ""semeadores"", mais rápido o download. Ajudem por favor. Obrigado."
,patozoide,2012-12-17T23:12Z,"Conteudo:
American.Horror.Story.S02E01.HDTV.x264-LOL.[VTV].mp4 ao American.Horror.Story.S02E09.HDTV.x264-LOL.[VTV].mp4 + Legendas em portugues do Brasil.

Todos em Formato                    : MPEG-4
Format profile                           : Base Media
Codec ID                                 : isom
File size                                : 261 MiB
Duration                                 : 46mn 10s
Overall bit rate mode                    : Variable
Overall bit rate                         : 792 Kbps
Encoded date                             : UTC 2012-10-16 19:36:58
Tagged date                              : UTC 2012-10-16 19:36:58

Video
ID                                       : 1
Format                                   : AVC
Format/Info                              : Advanced Video Codec
Format profile                           : High@L3.1
Format settings, CABAC                   : Yes
Format settings, ReFrames                : 5 frames
Codec ID                                 : avc1
Codec ID/Info                            : Advanced Video Coding
Duration                                 : 46mn 10s
Bit rate                                 : 672 Kbps
Maximum bit rate                         : 6 060 Kbps
Width                                    : 720 pixels
Height                                   : 404 pixels
Display aspect ratio                     : 16:9
Frame rate mode                          : Constant
Frame rate                               : 23.976 fps
Color space                              : YUV
Chroma subsampling                       : 4:2:0
Bit depth                                : 8 bits
Scan type                                : Progressive
Bits/(Pixel*Frame)                       : 0.096
Stream size                              : 222 MiB (85%)
Writing library                          : x264 core 128 r2216

Audio
ID                                       : 2
Format                                   : AAC
Format/Info                              : Advanced Audio Codec
Format profile                           : LC
Codec ID                                 : 40
Duration                                 : 46mn 10s
Bit rate mode                            : Variable
Bit rate                                 : 116 Kbps
Maximum bit rate                         : 152 Kbps
Channel(s)                               : 2 channels
Channel positions                        : Front: L R
Sampling rate                            : 48.0 KHz
Compression mode                         : Lossy
Delay relative to video                  : 83ms
Stream size                              : 38.3 MiB (15%)
Encoded date                             : UTC 2012-10-16 19:37:01
Tagged date                              : UTC 2012-10-16 19:37:03."
,patozoide,2012-12-21T22:38Z,"Um último comentário: Estou vendo todos usando o Utorrent e levando 2 dias pra baixar entre 15 à 30 kBps! Enquanto eu usando o Bitcomet baixei tudo em menos de 30 minutos à 1220 kBps, os 10 megabits limite da minha conexão! Quem se interessar pode baixar gratuitamente no site http://www.bitcomet.com/."
,patozoide,2012-12-25T07:58Z,"Se não quiserem ter o trabalho de baixar os episódios um por um, procurar e baixar as legendas, renomear e sincronizar-lás. Mantenham este torrent ativo mesmo depois de terminar de baixar. Assim vc sede (semeia) pra quem ainda estiver baixando. Em uma semana enviei 40 gigas! 20 vezes o tamanho do torrent! Mais de 100 pessoas baixaram, mas somente 3 se mantiveram semeando (4 comigo)! Vou parar de semear e apagar os arquivos originais da minha HD já q pouca gente está baixando e quem baixa não mantém o torrent. Verificarei em alguns dias e caso não hajam semeadores irei remover definitivamente este torrent. Agora é por conta de vcs manterem ou não o torrent."
